<?xml version="1.0" encoding="utf-8"?>
<!-- Generator: Adobe Illustrator 16.0.4, SVG Export Plug-In . SVG Version: 6.00 Build 0)  -->
<!DOCTYPE svg PUBLIC "-//W3C//DTD SVG 1.1//EN" "http://www.w3.org/Graphics/SVG/1.1/DTD/svg11.dtd">
<svg version="1.1" id="Layer_1" xmlns="http://www.w3.org/2000/svg" xmlns:xlink="http://www.w3.org/1999/xlink" x="0px" y="0px"
	 width="400px" height="400px" viewBox="200 0 400 400" enable-background="new 200 0 400 400" xml:space="preserve">
<polygon fill="#398919" points="378.355,241.907 386.736,255.519 391.125,248.712 "/>
<polygon fill="#398919" points="361.384,140.41 418.357,140.41 423.227,148.315 366.251,148.315 "/>
<polygon fill="#398919" points="321.234,244.76 380.284,244.76 385.152,252.665 326.102,252.665 "/>
<g>
	<polygon fill="#FDEC18" points="303.61,428.001 427.76,-34.926 432.184,-34.926 308.033,428.001 	"/>
	<polygon fill="#EB1C24" points="299.187,428.001 423.336,-34.926 427.76,-34.926 303.61,428.001 	"/>
	<polygon fill="#76C15A" points="316.879,428.001 441.03,-34.926 445.454,-34.926 321.302,428.001 	"/>
	<polygon fill="#625398" points="312.456,428.001 436.607,-34.926 441.03,-34.926 316.879,428.001 	"/>
	<polygon fill="#4494C7" points="308.033,428.001 432.184,-34.926 436.607,-34.926 312.456,428.001 	"/>
</g>
<g>
	<path d="M233.458,118.941c0-0.632,0.553-1.185,1.264-1.185h8.372c8.529,0,12.32,4.501,12.32,13.898c0,9.398-3.791,13.9-12.32,13.9
		h-7.108v24.165c0,0.869-0.395,1.264-1.264,1.264s-1.264-0.395-1.264-1.264V118.941z M235.985,120.206v22.902h7.108
		c6.871,0,9.792-3.238,9.792-11.451s-2.844-11.451-9.792-11.451H235.985L235.985,120.206z"/>
	<path d="M286.528,169.484c0.237,0.632-0.316,1.264-0.947,1.501h-0.316c-0.632,0-1.027-0.316-1.185-0.948l-3.553-15.32h-13.979
		l-3.554,15.32c-0.237,0.632-0.869,1.185-1.5,0.948c-0.711-0.237-1.185-0.869-0.948-1.501l11.767-50.779
		c0.158-0.632,0.553-0.948,1.185-0.948c0.71,0,1.105,0.316,1.264,0.948L286.528,169.484z M273.499,124.47l-6.397,27.798h12.873
		L273.499,124.47z"/>
	<path d="M313.459,169.642c0,0.869-0.395,1.264-1.263,1.264c-0.632,0-1.185-0.553-1.185-1.264v-13.503
		c0-6.555-3.633-10.188-9.95-10.188h-7.108v23.691c0,0.869-0.395,1.264-1.264,1.264c-0.632,0-1.185-0.553-1.185-1.264v-50.779
		c0-0.632,0.553-1.185,1.185-1.185h8.372c8.45,0,12.32,4.343,12.32,14.057c0,4.817-0.948,8.372-2.921,10.661
		c-0.869,1.027-1.896,1.817-3.238,2.37c1.026,0.553,1.895,1.106,2.764,1.975c2.29,2.211,3.474,5.37,3.474,9.398V169.642z
		 M293.954,120.126v23.376h7.108c6.871,0,9.792-3.239,9.792-11.767c0-8.212-2.842-11.609-9.792-11.609H293.954z"/>
	<path d="M319.383,118.941c0-0.632,0.553-1.185,1.264-1.185c0.711,0,1.264,0.553,1.264,1.185v50.78c0,0.869-0.395,1.264-1.264,1.264
		c-0.869,0-1.264-0.395-1.264-1.264V118.941z"/>
	<path d="M338.969,146.187l-1.342-0.632c-1.58-0.632-4.107-1.738-6.239-3.949c-2.211-2.132-4.027-5.133-4.027-9.792
		c0-7.977,4.027-14.137,11.372-14.137c7.582,0,11.451,4.896,11.451,14.137c0,0.632-0.553,1.264-1.264,1.264
		s-1.264-0.632-1.264-1.264c0-7.977-2.922-11.688-8.924-11.688c-5.607,0-8.924,4.817-8.924,11.688c0,3.79,1.422,6.317,3.317,8.055
		c1.815,1.737,3.948,2.765,5.528,3.396l1.264,0.553c1.343,0.632,3.949,1.658,6.16,3.712s4.106,5.054,4.106,9.714
		c0,3.869-1.027,7.186-2.843,9.634c-2.053,2.685-4.896,4.027-8.608,4.027c-7.582,0-11.372-4.896-11.372-14.058
		c0-0.869,0.395-1.264,1.264-1.264c0.632,0,1.185,0.553,1.185,1.264c0,5.133,1.343,8.056,3.08,9.634
		c1.737,1.659,3.948,1.975,5.844,1.975c5.686,0,8.924-4.185,8.924-11.214c0-3.791-1.501-6.318-3.317-7.977
		c-0.948-0.79-1.896-1.422-2.922-1.896L338.969,146.187z"/>
</g>
<g>
	<path d="M398.356,273.07c-0.869,0-1.264-0.395-1.264-1.264v-50.78c0-0.631,0.553-1.185,1.264-1.185
		c0.631,0,1.184,0.554,1.184,1.185v49.595h16.664c0.711,0,1.264,0.554,1.264,1.185c0,0.869-0.395,1.265-1.264,1.265H398.356
		L398.356,273.07z"/>
	<path d="M420.786,233.899c0-9.081,3.792-14.058,11.293-14.058c7.582,0,11.373,4.896,11.373,14.058v25.034
		c0,5.924-1.5,9.318-3.711,11.451c-2.212,2.133-5.055,2.686-7.662,2.686c-2.527,0-5.37-0.553-7.581-2.686s-3.712-5.528-3.712-11.451
		V233.899L420.786,233.899z M423.234,258.934c0,7.977,2.922,11.688,8.846,11.688c5.766,0,8.846-3.475,8.846-11.688v-25.034
		c0-8.135-2.922-11.609-8.846-11.609c-6.003,0-8.846,3.712-8.846,11.609V258.934z"/>
	<path d="M469.989,273.07c-0.553,0-0.948-0.237-1.106-0.79l-18.085-44.777v44.304c0,0.869-0.396,1.264-1.264,1.264
		c-0.87,0-1.265-0.395-1.265-1.264v-50.78c0-1.343,1.896-1.658,2.449-0.395l18.007,44.778v-44.383c0-0.632,0.553-1.186,1.264-1.186
		s1.264,0.554,1.264,1.186v50.78c0,0.711-0.315,1.105-1.027,1.264L469.989,273.07L469.989,273.07z"/>
	<path d="M478.124,273.07c-0.869,0-1.264-0.395-1.264-1.264v-50.78c0-0.631,0.553-1.185,1.264-1.185h7.818
		c8.451,0,12.321,4.896,12.321,14.373v24.482c0,9.477-3.87,14.373-12.321,14.373H478.124L478.124,273.07z M479.309,222.29v48.332
		h6.634c6.872,0,9.794-3.711,9.794-11.925v-24.482c0-8.213-2.922-11.925-9.794-11.925H479.309L479.309,222.29z"/>
	<path d="M504.188,233.899c0-9.081,3.791-14.058,11.293-14.058c7.582,0,11.372,4.896,11.372,14.058v25.034
		c0,5.924-1.5,9.318-3.711,11.451c-2.212,2.133-5.055,2.686-7.661,2.686c-2.526,0-5.371-0.553-7.582-2.686
		c-2.21-2.133-3.711-5.528-3.711-11.451V233.899L504.188,233.899z M506.635,258.934c0,7.977,2.922,11.688,8.845,11.688
		c5.766,0,8.845-3.475,8.845-11.688v-25.034c0-8.135-2.921-11.609-8.845-11.609c-6.002,0-8.845,3.712-8.845,11.609V258.934z"/>
	<path d="M553.39,273.07c-0.553,0-0.947-0.237-1.105-0.79l-18.086-44.777v44.304c0,0.869-0.396,1.264-1.264,1.264
		c-0.869,0-1.264-0.395-1.264-1.264v-50.78c0-1.343,1.895-1.658,2.448-0.395l18.007,44.778v-44.383c0-0.632,0.553-1.186,1.264-1.186
		s1.264,0.554,1.264,1.186v50.78c0,0.711-0.315,1.105-1.025,1.264L553.39,273.07L553.39,273.07z"/>
</g>
<polygon fill="#76C15A" points="326.102,252.665 423.227,148.315 418.357,140.41 321.234,244.76 "/>
<path fill="none" stroke="#000000" stroke-miterlimit="10" d="M380.284,244.76"/>
<g>
	<circle fill="#76C15A" cx="372.23" cy="196.538" r="20.843"/>
	<text transform="matrix(1 0 0 1 356.48 201.7148)" fill="#FFFFFF" font-family="'Lato-Black'" font-size="13.6395">2013</text>
</g>
<text transform="matrix(1 0 0 1 309.0171 201.7148)" font-family="'Lato-Black'" font-size="13.6395">22-24</text>
<text transform="matrix(1 0 0 1 398.5591 201.7148)" font-family="'Lato-Black'" font-size="13.6395">SEPT</text>
</svg>
